<svg xmlns="http://www.w3.org/2000/svg">
  <defs>
    <style>
      .spark-icon {
        fill: none;
        stroke: currentColor;
        stroke-width: 1.8;
        stroke-linecap: round;
        stroke-linejoin: round;
      }
    </style>
    <symbol id="home" viewBox="0 0 24 24">
      <path class="spark-icon" d="M4 11.5 12 5l8 6.5"/>
      <path class="spark-icon" d="M6.5 10.5V20h11v-9.5"/>
      <path class="spark-icon" d="M10 20v-5h4v5"/>
    </symbol>
    <symbol id="ai" viewBox="0 0 24 24">
      <path class="spark-icon" d="M8 5.5h8a3 3 0 0 1 3 3v5.8a3 3 0 0 1-3 3H11l-4 2.8v-2.8a3 3 0 0 1-3-3V8.5a3 3 0 0 1 3-3h1"/>
      <path class="spark-icon" d="M9 10h.01M15 10h.01M9.5 13.5c1.5 1 3.5 1 5 0"/>
    </symbol>
    <symbol id="user" viewBox="0 0 24 24">
      <path class="spark-icon" d="M12 12.5a4 4 0 1 0 0-8 4 4 0 0 0 0 8Z"/>
      <path class="spark-icon" d="M4.5 20c1.4-3.4 4-5 7.5-5s6.1 1.6 7.5 5"/>
    </symbol>
    <symbol id="hospital" viewBox="0 0 24 24">
      <path class="spark-icon" d="M5 20V5.8A1.8 1.8 0 0 1 6.8 4h10.4A1.8 1.8 0 0 1 19 5.8V20"/>
      <path class="spark-icon" d="M3.5 20h17"/>
      <path class="spark-icon" d="M12 8v5M9.5 10.5h5"/>
      <path class="spark-icon" d="M9 20v-4h6v4"/>
    </symbol>
    <symbol id="first-aid" viewBox="0 0 24 24">
      <path class="spark-icon" d="M7.5 7V5.8A1.8 1.8 0 0 1 9.3 4h5.4a1.8 1.8 0 0 1 1.8 1.8V7"/>
      <path class="spark-icon" d="M5.8 7h12.4A1.8 1.8 0 0 1 20 8.8v9.4a1.8 1.8 0 0 1-1.8 1.8H5.8A1.8 1.8 0 0 1 4 18.2V8.8A1.8 1.8 0 0 1 5.8 7Z"/>
      <path class="spark-icon" d="M12 10.5v6M9 13.5h6"/>
    </symbol>
    <symbol id="calendar" viewBox="0 0 24 24">
      <path class="spark-icon" d="M7 4v3M17 4v3"/>
      <path class="spark-icon" d="M5.8 6h12.4A1.8 1.8 0 0 1 20 7.8v10.4a1.8 1.8 0 0 1-1.8 1.8H5.8A1.8 1.8 0 0 1 4 18.2V7.8A1.8 1.8 0 0 1 5.8 6Z"/>
      <path class="spark-icon" d="M4 10h16M8 14h3M13 14h3M8 17h3"/>
    </symbol>
    <symbol id="chat" viewBox="0 0 24 24">
      <path class="spark-icon" d="M5 6.8A2.8 2.8 0 0 1 7.8 4h8.4A2.8 2.8 0 0 1 19 6.8v5.4a2.8 2.8 0 0 1-2.8 2.8h-4.8L7 18v-3H7.8A2.8 2.8 0 0 1 5 12.2Z"/>
      <path class="spark-icon" d="M8.5 8.5h7M8.5 11.5h5"/>
    </symbol>
    <symbol id="service" viewBox="0 0 24 24">
      <path class="spark-icon" d="M6 12a6 6 0 0 1 12 0"/>
      <path class="spark-icon" d="M5 12h2v4H5a2 2 0 0 1-2-2v0a2 2 0 0 1 2-2ZM19 12h-2v4h2a2 2 0 0 0 2-2v0a2 2 0 0 0-2-2Z"/>
      <path class="spark-icon" d="M17 16.5c-.8 1.8-2.4 2.8-5 2.8h-1"/>
    </symbol>
    <symbol id="stethoscope" viewBox="0 0 24 24">
      <path class="spark-icon" d="M7 5v4.2a4.8 4.8 0 0 0 9.6 0V5"/>
      <path class="spark-icon" d="M5.5 5h3M15.1 5h3"/>
      <path class="spark-icon" d="M11.8 14v1.5a4 4 0 0 0 4 4h.9"/>
      <path class="spark-icon" d="M19 19.5a2 2 0 1 0 0-4 2 2 0 0 0 0 4Z"/>
    </symbol>
    <symbol id="doctor" viewBox="0 0 24 24">
      <path class="spark-icon" d="M12 11.5a3.7 3.7 0 1 0 0-7.4 3.7 3.7 0 0 0 0 7.4Z"/>
      <path class="spark-icon" d="M5 20c1.2-3.5 3.6-5.2 7-5.2s5.8 1.7 7 5.2"/>
      <path class="spark-icon" d="M17.5 15.5v4M15.5 17.5h4"/>
    </symbol>
    <symbol id="passport" viewBox="0 0 24 24">
      <path class="spark-icon" d="M7 3.8h9.2A1.8 1.8 0 0 1 18 5.6v12.8a1.8 1.8 0 0 1-1.8 1.8H7.8A1.8 1.8 0 0 1 6 18.4V4.8a1 1 0 0 1 1-1Z"/>
      <path class="spark-icon" d="M9 15h6M9 17h4"/>
      <path class="spark-icon" d="M12 12.3a3 3 0 1 0 0-6 3 3 0 0 0 0 6Z"/>
      <path class="spark-icon" d="M9.2 9.3h5.6M12 6.5c.7.7 1.1 1.6 1.1 2.8s-.4 2.1-1.1 2.8M12 6.5c-.7.7-1.1 1.6-1.1 2.8s.4 2.1 1.1 2.8"/>
    </symbol>
    <symbol id="document" viewBox="0 0 24 24">
      <path class="spark-icon" d="M7 4h7l4 4v11a1 1 0 0 1-1 1H7a1 1 0 0 1-1-1V5a1 1 0 0 1 1-1Z"/>
      <path class="spark-icon" d="M14 4v4h4M9 12h6M9 15h6M9 18h4"/>
    </symbol>
    <symbol id="upload" viewBox="0 0 24 24">
      <path class="spark-icon" d="M12 15V5"/>
      <path class="spark-icon" d="m8 9 4-4 4 4"/>
      <path class="spark-icon" d="M5 15v3.2A1.8 1.8 0 0 0 6.8 20h10.4A1.8 1.8 0 0 0 19 18.2V15"/>
    </symbol>
    <symbol id="map" viewBox="0 0 24 24">
      <path class="spark-icon" d="M9 18.5 4 20V6l5-1.5 6 1.8L20 4.8v14l-5 1.5-6-1.8Z"/>
      <path class="spark-icon" d="M9 4.5v14M15 6.3v14"/>
    </symbol>
    <symbol id="phone" viewBox="0 0 24 24">
      <path class="spark-icon" d="M7 4.5 9.4 4l2 4-1.5 1.2c.8 1.7 2.2 3.1 4 4l1.2-1.5 4 2-.5 2.4c-.2 1-1.1 1.7-2.1 1.6C10.4 17.4 6.6 13.6 6.3 7.5c-.1-1 .6-1.9 1.6-2.1Z"/>
    </symbol>
    <symbol id="shield" viewBox="0 0 24 24">
      <path class="spark-icon" d="M12 3.8 19 6v5.2c0 4.5-2.6 7.5-7 9-4.4-1.5-7-4.5-7-9V6Z"/>
      <path class="spark-icon" d="m9 12 2 2 4-4"/>
    </symbol>
    <symbol id="insurance" viewBox="0 0 24 24">
      <path class="spark-icon" d="M12 3.8 19 6v5.2c0 4.5-2.6 7.5-7 9-4.4-1.5-7-4.5-7-9V6Z"/>
      <path class="spark-icon" d="M9 9h6M9 12h6M9 15h3"/>
    </symbol>
    <symbol id="concierge" viewBox="0 0 24 24">
      <path class="spark-icon" d="M4 16h16"/>
      <path class="spark-icon" d="M6 16a6 6 0 0 1 12 0"/>
      <path class="spark-icon" d="M12 8V5M10 5h4"/>
      <path class="spark-icon" d="M7 19h10"/>
    </symbol>
    <symbol id="payment" viewBox="0 0 24 24">
      <path class="spark-icon" d="M5.8 6h12.4A1.8 1.8 0 0 1 20 7.8v8.4a1.8 1.8 0 0 1-1.8 1.8H5.8A1.8 1.8 0 0 1 4 16.2V7.8A1.8 1.8 0 0 1 5.8 6Z"/>
      <path class="spark-icon" d="M4 10h16M7.5 14.5h3"/>
    </symbol>
    <symbol id="success" viewBox="0 0 24 24">
      <path class="spark-icon" d="M12 20a8 8 0 1 0 0-16 8 8 0 0 0 0 16Z"/>
      <path class="spark-icon" d="m8.5 12 2.3 2.3 4.8-5"/>
    </symbol>
    <symbol id="settings" viewBox="0 0 24 24">
      <path class="spark-icon" d="M12 15.2a3.2 3.2 0 1 0 0-6.4 3.2 3.2 0 0 0 0 6.4Z"/>
      <path class="spark-icon" d="M18.5 13.5c.1-.5.1-1 .1-1.5s0-1-.1-1.5l2-1.4-2-3.4-2.4 1a7 7 0 0 0-2.6-1.5L13.2 3h-4l-.4 2.2a7 7 0 0 0-2.5 1.5l-2.4-1-2 3.4 2 1.4A7 7 0 0 0 3.8 12c0 .5 0 1 .1 1.5l-2 1.4 2 3.4 2.4-1a7 7 0 0 0 2.5 1.5l.4 2.2h4l.3-2.2a7 7 0 0 0 2.6-1.5l2.4 1 2-3.4Z"/>
    </symbol>
    <symbol id="language" viewBox="0 0 24 24">
      <path class="spark-icon" d="M4 6h9M8.5 4v2M6 20l4-10 4 10M7.2 17h5.6M14 6h6M17 6c-.2 4.3-2.1 7.2-5.8 8.9M15 10c1 2.1 2.7 3.8 5 5"/>
    </symbol>
    <symbol id="location" viewBox="0 0 24 24">
      <path class="spark-icon" d="M12 21s6-5.2 6-11a6 6 0 1 0-12 0c0 5.8 6 11 6 11Z"/>
      <path class="spark-icon" d="M12 12.5a2.4 2.4 0 1 0 0-4.8 2.4 2.4 0 0 0 0 4.8Z"/>
    </symbol>
    <symbol id="route" viewBox="0 0 24 24">
      <path class="spark-icon" d="M6.5 6.5h4a3 3 0 0 1 0 6h-1a3 3 0 0 0 0 6h8"/>
      <path class="spark-icon" d="M6.5 8.8a2.3 2.3 0 1 0 0-4.6 2.3 2.3 0 0 0 0 4.6ZM17.5 20.8a2.3 2.3 0 1 0 0-4.6 2.3 2.3 0 0 0 0 4.6Z"/>
    </symbol>
    <symbol id="compare" viewBox="0 0 24 24">
      <path class="spark-icon" d="M7 5v14M17 5v14"/>
      <path class="spark-icon" d="M4 8h6M14 8h6M4 13h6M14 13h6M4 18h6M14 18h6"/>
    </symbol>
  </defs>
</svg>
