<svg xmlns="http://www.w3.org/2000/svg" width="360" height="240" viewBox="0 0 360 240" role="img" aria-label="Health check background">
  <defs>
    <linearGradient id="bg" x1="0" y1="0" x2="1" y2="1">
      <stop offset="0" stop-color="#eef5ff"/>
      <stop offset="1" stop-color="#dff8f1"/>
    </linearGradient>
    <linearGradient id="blue" x1="0" y1="0" x2="1" y2="1">
      <stop offset="0" stop-color="#2563eb"/>
      <stop offset="1" stop-color="#0f766e"/>
    </linearGradient>
  </defs>
  <rect width="360" height="240" rx="28" fill="url(#bg)"/>
  <circle cx="302" cy="38" r="58" fill="#d8ebff"/>
  <circle cx="48" cy="196" r="74" fill="#d9f6ef"/>
  <rect x="68" y="44" width="154" height="172" rx="18" fill="#fff" stroke="#b9d4ff" stroke-width="3"/>
  <rect x="102" y="28" width="86" height="34" rx="12" fill="#e6f7f3" stroke="#8ccfc2" stroke-width="3"/>
  <path d="M108 100h32l17-32 27 70 18-38h52" fill="none" stroke="url(#blue)" stroke-width="10" stroke-linecap="round" stroke-linejoin="round"/>
  <path d="M246 78c20 0 36 16 36 36v24c0 22 16 40 38 40" fill="none" stroke="#0f766e" stroke-width="10" stroke-linecap="round"/>
  <circle cx="321" cy="178" r="16" fill="#f5a524"/>
  <circle cx="321" cy="178" r="7" fill="#fff7e6"/>
  <rect x="102" y="162" width="78" height="12" rx="6" fill="#cfe1ff"/>
  <rect x="102" y="184" width="106" height="12" rx="6" fill="#cfeee8"/>
</svg>
