<svg xmlns="http://www.w3.org/2000/svg" width="360" height="240" viewBox="0 0 360 240" role="img" aria-label="Endoscopy background">
  <defs>
    <linearGradient id="bg" x1="0" y1="0" x2="1" y2="1">
      <stop offset="0" stop-color="#eef5ff"/>
      <stop offset="1" stop-color="#f7fbff"/>
    </linearGradient>
    <linearGradient id="screen" x1="0" y1="0" x2="1" y2="1">
      <stop offset="0" stop-color="#2563eb"/>
      <stop offset="1" stop-color="#0f766e"/>
    </linearGradient>
  </defs>
  <rect width="360" height="240" rx="28" fill="url(#bg)"/>
  <circle cx="302" cy="58" r="60" fill="#d9f6ef"/>
  <circle cx="54" cy="198" r="70" fill="#dceaff"/>
  <rect x="54" y="48" width="168" height="126" rx="18" fill="#fff" stroke="#b9d4ff" stroke-width="4"/>
  <rect x="74" y="68" width="128" height="82" rx="12" fill="url(#screen)"/>
  <path d="M94 116c18-28 40 23 58-5 10-16 20-18 32-9" fill="none" stroke="#dff8f1" stroke-width="8" stroke-linecap="round"/>
  <path d="M222 112h46c28 0 50 22 50 50 0 26-20 48-46 50" fill="none" stroke="#0f766e" stroke-width="12" stroke-linecap="round"/>
  <circle cx="272" cy="212" r="16" fill="#f5a524"/>
  <circle cx="272" cy="212" r="7" fill="#fff7e6"/>
  <rect x="112" y="176" width="52" height="12" rx="6" fill="#91b7f4"/>
  <rect x="92" y="196" width="92" height="14" rx="7" fill="#cfeee8"/>
  <rect x="244" y="76" width="70" height="20" rx="10" fill="#cfe1ff"/>
</svg>
